M48
; DRILL file KiCad 10.0.3 date 2026-06-03T17:59:17
; FORMAT={-:-/ absolute / metric / decimal}
; #@! TF.CreationDate,2026-06-03T17:59:17-05:00
; #@! TF.GenerationSoftware,Kicad,Pcbnew,10.0.3
; #@! TF.FileFunction,Plated,1,2,PTH
FMAT,2
METRIC
; #@! TA.AperFunction,Plated,PTH,ViaDrill
T1C0.300
; #@! TA.AperFunction,Plated,PTH,ComponentDrill
T2C0.787
; #@! TA.AperFunction,Plated,PTH,ComponentDrill
T3C0.800
; #@! TA.AperFunction,Plated,PTH,ComponentDrill
T4C0.850
; #@! TA.AperFunction,Plated,PTH,ComponentDrill
T5C0.900
; #@! TA.AperFunction,Plated,PTH,ComponentDrill
T6C1.000
%
G90
G05
T1
X169.0Y-93.3
T2
X124.0Y-79.46
X124.0Y-82.0
X124.0Y-84.54
X124.0Y-87.08
X124.0Y-89.62
X124.0Y-92.16
X124.0Y-94.7
X124.0Y-97.24
X131.62Y-79.46
X131.62Y-82.0
X131.62Y-84.54
X131.62Y-87.08
X131.62Y-89.62
X131.62Y-92.16
X131.62Y-94.7
X131.62Y-97.24
T3
X111.5Y-102.69
X111.5Y-110.31
X140.19Y-96.695
X140.19Y-104.315
X140.5Y-92.5
X142.73Y-96.695
X142.73Y-104.315
X145.27Y-96.695
X145.27Y-104.315
X147.53Y-111.0
X147.81Y-96.695
X147.81Y-104.315
X148.12Y-92.5
X149.53Y-111.0
T4
X155.0Y-87.42
X155.0Y-89.96
X155.0Y-92.5
T5
X91.5Y-75.0
X94.04Y-75.0
X101.0Y-97.0
X103.54Y-97.0
X109.96Y-54.5
X112.5Y-54.5
X119.5Y-118.0
X122.04Y-118.0
X135.96Y-132.5
X136.23Y-73.5
X138.5Y-132.5
X138.77Y-73.5
X156.46Y-113.5
X159.0Y-113.5
X161.73Y-54.5
X164.27Y-54.5
X174.96Y-91.5
X177.5Y-91.5
X180.5Y-72.0
X183.04Y-72.0
T6
X119.0Y-89.5
X119.0Y-92.04
X132.0Y-106.5
X137.0Y-106.5
X142.5Y-78.5
M30
