%TF.GenerationSoftware,KiCad,Pcbnew,10.0.3*%
%TF.CreationDate,2026-06-03T17:59:07-05:00*%
%TF.ProjectId,Blinky Light,426c696e-6b79-4204-9c69-6768742e6b69,rev?*%
%TF.SameCoordinates,Original*%
%TF.FileFunction,Legend,Top*%
%TF.FilePolarity,Positive*%
%FSLAX46Y46*%
G04 Gerber Fmt 4.6, Leading zero omitted, Abs format (unit mm)*
G04 Created by KiCad (PCBNEW 10.0.3) date 2026-06-03 17:59:07*
%MOMM*%
%LPD*%
G01*
G04 APERTURE LIST*
%ADD10C,0.100000*%
%ADD11C,0.150000*%
%ADD12C,0.120000*%
%ADD13C,0.152400*%
G04 APERTURE END LIST*
D10*
X154018169Y-70125724D02*
X154018169Y-66125724D01*
X154018169Y-68030486D02*
X156303884Y-68030486D01*
X156303884Y-70125724D02*
X156303884Y-66125724D01*
X158018169Y-68982867D02*
X159922931Y-68982867D01*
X157637217Y-70125724D02*
X158970550Y-66125724D01*
X158970550Y-66125724D02*
X160303884Y-70125724D01*
X161637216Y-70125724D02*
X161637216Y-66125724D01*
X161637216Y-66125724D02*
X163161026Y-66125724D01*
X163161026Y-66125724D02*
X163541978Y-66316200D01*
X163541978Y-66316200D02*
X163732455Y-66506676D01*
X163732455Y-66506676D02*
X163922931Y-66887628D01*
X163922931Y-66887628D02*
X163922931Y-67459057D01*
X163922931Y-67459057D02*
X163732455Y-67840009D01*
X163732455Y-67840009D02*
X163541978Y-68030486D01*
X163541978Y-68030486D02*
X163161026Y-68220962D01*
X163161026Y-68220962D02*
X161637216Y-68220962D01*
X165637216Y-70125724D02*
X165637216Y-66125724D01*
X165637216Y-66125724D02*
X167161026Y-66125724D01*
X167161026Y-66125724D02*
X167541978Y-66316200D01*
X167541978Y-66316200D02*
X167732455Y-66506676D01*
X167732455Y-66506676D02*
X167922931Y-66887628D01*
X167922931Y-66887628D02*
X167922931Y-67459057D01*
X167922931Y-67459057D02*
X167732455Y-67840009D01*
X167732455Y-67840009D02*
X167541978Y-68030486D01*
X167541978Y-68030486D02*
X167161026Y-68220962D01*
X167161026Y-68220962D02*
X165637216Y-68220962D01*
X170399121Y-68220962D02*
X170399121Y-70125724D01*
X169065788Y-66125724D02*
X170399121Y-68220962D01*
X170399121Y-68220962D02*
X171732455Y-66125724D01*
X155351503Y-74470262D02*
X154018169Y-74470262D01*
X154018169Y-76565500D02*
X154018169Y-72565500D01*
X154018169Y-72565500D02*
X155922931Y-72565500D01*
X157256264Y-75422643D02*
X159161026Y-75422643D01*
X156875312Y-76565500D02*
X158208645Y-72565500D01*
X158208645Y-72565500D02*
X159541979Y-76565500D01*
X160303883Y-72565500D02*
X162589597Y-72565500D01*
X161446740Y-76565500D02*
X161446740Y-72565500D01*
X163922930Y-76565500D02*
X163922930Y-72565500D01*
X163922930Y-74470262D02*
X166208645Y-74470262D01*
X166208645Y-76565500D02*
X166208645Y-72565500D01*
X168113406Y-74470262D02*
X169446740Y-74470262D01*
X170018168Y-76565500D02*
X168113406Y-76565500D01*
X168113406Y-76565500D02*
X168113406Y-72565500D01*
X168113406Y-72565500D02*
X170018168Y-72565500D01*
X174018169Y-76565500D02*
X172684835Y-74660738D01*
X171732454Y-76565500D02*
X171732454Y-72565500D01*
X171732454Y-72565500D02*
X173256264Y-72565500D01*
X173256264Y-72565500D02*
X173637216Y-72755976D01*
X173637216Y-72755976D02*
X173827693Y-72946452D01*
X173827693Y-72946452D02*
X174018169Y-73327404D01*
X174018169Y-73327404D02*
X174018169Y-73898833D01*
X174018169Y-73898833D02*
X173827693Y-74279785D01*
X173827693Y-74279785D02*
X173637216Y-74470262D01*
X173637216Y-74470262D02*
X173256264Y-74660738D01*
X173256264Y-74660738D02*
X171732454Y-74660738D01*
X175541978Y-76375024D02*
X176113407Y-76565500D01*
X176113407Y-76565500D02*
X177065788Y-76565500D01*
X177065788Y-76565500D02*
X177446740Y-76375024D01*
X177446740Y-76375024D02*
X177637216Y-76184547D01*
X177637216Y-76184547D02*
X177827693Y-75803595D01*
X177827693Y-75803595D02*
X177827693Y-75422643D01*
X177827693Y-75422643D02*
X177637216Y-75041690D01*
X177637216Y-75041690D02*
X177446740Y-74851214D01*
X177446740Y-74851214D02*
X177065788Y-74660738D01*
X177065788Y-74660738D02*
X176303883Y-74470262D01*
X176303883Y-74470262D02*
X175922931Y-74279785D01*
X175922931Y-74279785D02*
X175732454Y-74089309D01*
X175732454Y-74089309D02*
X175541978Y-73708357D01*
X175541978Y-73708357D02*
X175541978Y-73327404D01*
X175541978Y-73327404D02*
X175732454Y-72946452D01*
X175732454Y-72946452D02*
X175922931Y-72755976D01*
X175922931Y-72755976D02*
X176303883Y-72565500D01*
X176303883Y-72565500D02*
X177256264Y-72565500D01*
X177256264Y-72565500D02*
X177827693Y-72755976D01*
X154018169Y-83005276D02*
X154018169Y-79005276D01*
X154018169Y-79005276D02*
X154970550Y-79005276D01*
X154970550Y-79005276D02*
X155541979Y-79195752D01*
X155541979Y-79195752D02*
X155922931Y-79576704D01*
X155922931Y-79576704D02*
X156113408Y-79957657D01*
X156113408Y-79957657D02*
X156303884Y-80719561D01*
X156303884Y-80719561D02*
X156303884Y-81290990D01*
X156303884Y-81290990D02*
X156113408Y-82052895D01*
X156113408Y-82052895D02*
X155922931Y-82433847D01*
X155922931Y-82433847D02*
X155541979Y-82814800D01*
X155541979Y-82814800D02*
X154970550Y-83005276D01*
X154970550Y-83005276D02*
X154018169Y-83005276D01*
X157827693Y-81862419D02*
X159732455Y-81862419D01*
X157446741Y-83005276D02*
X158780074Y-79005276D01*
X158780074Y-79005276D02*
X160113408Y-83005276D01*
X162208645Y-81100514D02*
X162208645Y-83005276D01*
X160875312Y-79005276D02*
X162208645Y-81100514D01*
X162208645Y-81100514D02*
X163541979Y-79005276D01*
X164875311Y-82624323D02*
X165065788Y-82814800D01*
X165065788Y-82814800D02*
X164875311Y-83005276D01*
X164875311Y-83005276D02*
X164684835Y-82814800D01*
X164684835Y-82814800D02*
X164875311Y-82624323D01*
X164875311Y-82624323D02*
X164875311Y-83005276D01*
X164875311Y-81481466D02*
X164684835Y-79195752D01*
X164684835Y-79195752D02*
X164875311Y-79005276D01*
X164875311Y-79005276D02*
X165065788Y-79195752D01*
X165065788Y-79195752D02*
X164875311Y-81481466D01*
X164875311Y-81481466D02*
X164875311Y-79005276D01*
D11*
X162261905Y-51994819D02*
X162261905Y-50994819D01*
X162261905Y-50994819D02*
X162500000Y-50994819D01*
X162500000Y-50994819D02*
X162642857Y-51042438D01*
X162642857Y-51042438D02*
X162738095Y-51137676D01*
X162738095Y-51137676D02*
X162785714Y-51232914D01*
X162785714Y-51232914D02*
X162833333Y-51423390D01*
X162833333Y-51423390D02*
X162833333Y-51566247D01*
X162833333Y-51566247D02*
X162785714Y-51756723D01*
X162785714Y-51756723D02*
X162738095Y-51851961D01*
X162738095Y-51851961D02*
X162642857Y-51947200D01*
X162642857Y-51947200D02*
X162500000Y-51994819D01*
X162500000Y-51994819D02*
X162261905Y-51994819D01*
X163690476Y-50994819D02*
X163500000Y-50994819D01*
X163500000Y-50994819D02*
X163404762Y-51042438D01*
X163404762Y-51042438D02*
X163357143Y-51090057D01*
X163357143Y-51090057D02*
X163261905Y-51232914D01*
X163261905Y-51232914D02*
X163214286Y-51423390D01*
X163214286Y-51423390D02*
X163214286Y-51804342D01*
X163214286Y-51804342D02*
X163261905Y-51899580D01*
X163261905Y-51899580D02*
X163309524Y-51947200D01*
X163309524Y-51947200D02*
X163404762Y-51994819D01*
X163404762Y-51994819D02*
X163595238Y-51994819D01*
X163595238Y-51994819D02*
X163690476Y-51947200D01*
X163690476Y-51947200D02*
X163738095Y-51899580D01*
X163738095Y-51899580D02*
X163785714Y-51804342D01*
X163785714Y-51804342D02*
X163785714Y-51566247D01*
X163785714Y-51566247D02*
X163738095Y-51471009D01*
X163738095Y-51471009D02*
X163690476Y-51423390D01*
X163690476Y-51423390D02*
X163595238Y-51375771D01*
X163595238Y-51375771D02*
X163404762Y-51375771D01*
X163404762Y-51375771D02*
X163309524Y-51423390D01*
X163309524Y-51423390D02*
X163261905Y-51471009D01*
X163261905Y-51471009D02*
X163214286Y-51566247D01*
X156515714Y-110994819D02*
X156515714Y-109994819D01*
X156515714Y-109994819D02*
X156753809Y-109994819D01*
X156753809Y-109994819D02*
X156896666Y-110042438D01*
X156896666Y-110042438D02*
X156991904Y-110137676D01*
X156991904Y-110137676D02*
X157039523Y-110232914D01*
X157039523Y-110232914D02*
X157087142Y-110423390D01*
X157087142Y-110423390D02*
X157087142Y-110566247D01*
X157087142Y-110566247D02*
X157039523Y-110756723D01*
X157039523Y-110756723D02*
X156991904Y-110851961D01*
X156991904Y-110851961D02*
X156896666Y-110947200D01*
X156896666Y-110947200D02*
X156753809Y-110994819D01*
X156753809Y-110994819D02*
X156515714Y-110994819D01*
X158039523Y-110994819D02*
X157468095Y-110994819D01*
X157753809Y-110994819D02*
X157753809Y-109994819D01*
X157753809Y-109994819D02*
X157658571Y-110137676D01*
X157658571Y-110137676D02*
X157563333Y-110232914D01*
X157563333Y-110232914D02*
X157468095Y-110280533D01*
X158991904Y-110994819D02*
X158420476Y-110994819D01*
X158706190Y-110994819D02*
X158706190Y-109994819D01*
X158706190Y-109994819D02*
X158610952Y-110137676D01*
X158610952Y-110137676D02*
X158515714Y-110232914D01*
X158515714Y-110232914D02*
X158420476Y-110280533D01*
X136015714Y-129994819D02*
X136015714Y-128994819D01*
X136015714Y-128994819D02*
X136253809Y-128994819D01*
X136253809Y-128994819D02*
X136396666Y-129042438D01*
X136396666Y-129042438D02*
X136491904Y-129137676D01*
X136491904Y-129137676D02*
X136539523Y-129232914D01*
X136539523Y-129232914D02*
X136587142Y-129423390D01*
X136587142Y-129423390D02*
X136587142Y-129566247D01*
X136587142Y-129566247D02*
X136539523Y-129756723D01*
X136539523Y-129756723D02*
X136491904Y-129851961D01*
X136491904Y-129851961D02*
X136396666Y-129947200D01*
X136396666Y-129947200D02*
X136253809Y-129994819D01*
X136253809Y-129994819D02*
X136015714Y-129994819D01*
X137539523Y-129994819D02*
X136968095Y-129994819D01*
X137253809Y-129994819D02*
X137253809Y-128994819D01*
X137253809Y-128994819D02*
X137158571Y-129137676D01*
X137158571Y-129137676D02*
X137063333Y-129232914D01*
X137063333Y-129232914D02*
X136968095Y-129280533D01*
X138158571Y-128994819D02*
X138253809Y-128994819D01*
X138253809Y-128994819D02*
X138349047Y-129042438D01*
X138349047Y-129042438D02*
X138396666Y-129090057D01*
X138396666Y-129090057D02*
X138444285Y-129185295D01*
X138444285Y-129185295D02*
X138491904Y-129375771D01*
X138491904Y-129375771D02*
X138491904Y-129613866D01*
X138491904Y-129613866D02*
X138444285Y-129804342D01*
X138444285Y-129804342D02*
X138396666Y-129899580D01*
X138396666Y-129899580D02*
X138349047Y-129947200D01*
X138349047Y-129947200D02*
X138253809Y-129994819D01*
X138253809Y-129994819D02*
X138158571Y-129994819D01*
X138158571Y-129994819D02*
X138063333Y-129947200D01*
X138063333Y-129947200D02*
X138015714Y-129899580D01*
X138015714Y-129899580D02*
X137968095Y-129804342D01*
X137968095Y-129804342D02*
X137920476Y-129613866D01*
X137920476Y-129613866D02*
X137920476Y-129375771D01*
X137920476Y-129375771D02*
X137968095Y-129185295D01*
X137968095Y-129185295D02*
X138015714Y-129090057D01*
X138015714Y-129090057D02*
X138063333Y-129042438D01*
X138063333Y-129042438D02*
X138158571Y-128994819D01*
X134333333Y-104359580D02*
X134285714Y-104407200D01*
X134285714Y-104407200D02*
X134142857Y-104454819D01*
X134142857Y-104454819D02*
X134047619Y-104454819D01*
X134047619Y-104454819D02*
X133904762Y-104407200D01*
X133904762Y-104407200D02*
X133809524Y-104311961D01*
X133809524Y-104311961D02*
X133761905Y-104216723D01*
X133761905Y-104216723D02*
X133714286Y-104026247D01*
X133714286Y-104026247D02*
X133714286Y-103883390D01*
X133714286Y-103883390D02*
X133761905Y-103692914D01*
X133761905Y-103692914D02*
X133809524Y-103597676D01*
X133809524Y-103597676D02*
X133904762Y-103502438D01*
X133904762Y-103502438D02*
X134047619Y-103454819D01*
X134047619Y-103454819D02*
X134142857Y-103454819D01*
X134142857Y-103454819D02*
X134285714Y-103502438D01*
X134285714Y-103502438D02*
X134333333Y-103550057D01*
X135190476Y-103788152D02*
X135190476Y-104454819D01*
X134952381Y-103407200D02*
X134714286Y-104121485D01*
X134714286Y-104121485D02*
X135333333Y-104121485D01*
X109584819Y-106666666D02*
X109108628Y-106999999D01*
X109584819Y-107238094D02*
X108584819Y-107238094D01*
X108584819Y-107238094D02*
X108584819Y-106857142D01*
X108584819Y-106857142D02*
X108632438Y-106761904D01*
X108632438Y-106761904D02*
X108680057Y-106714285D01*
X108680057Y-106714285D02*
X108775295Y-106666666D01*
X108775295Y-106666666D02*
X108918152Y-106666666D01*
X108918152Y-106666666D02*
X109013390Y-106714285D01*
X109013390Y-106714285D02*
X109061009Y-106761904D01*
X109061009Y-106761904D02*
X109108628Y-106857142D01*
X109108628Y-106857142D02*
X109108628Y-107238094D01*
X108918152Y-105809523D02*
X109584819Y-105809523D01*
X108537200Y-106047618D02*
X109251485Y-106285713D01*
X109251485Y-106285713D02*
X109251485Y-105666666D01*
X149594819Y-101266904D02*
X150404342Y-101266904D01*
X150404342Y-101266904D02*
X150499580Y-101219285D01*
X150499580Y-101219285D02*
X150547200Y-101171666D01*
X150547200Y-101171666D02*
X150594819Y-101076428D01*
X150594819Y-101076428D02*
X150594819Y-100885952D01*
X150594819Y-100885952D02*
X150547200Y-100790714D01*
X150547200Y-100790714D02*
X150499580Y-100743095D01*
X150499580Y-100743095D02*
X150404342Y-100695476D01*
X150404342Y-100695476D02*
X149594819Y-100695476D01*
X150594819Y-99695476D02*
X150594819Y-100266904D01*
X150594819Y-99981190D02*
X149594819Y-99981190D01*
X149594819Y-99981190D02*
X149737676Y-100076428D01*
X149737676Y-100076428D02*
X149832914Y-100171666D01*
X149832914Y-100171666D02*
X149880533Y-100266904D01*
X128571904Y-88895180D02*
X128571904Y-88085657D01*
X128571904Y-88085657D02*
X128524285Y-87990419D01*
X128524285Y-87990419D02*
X128476666Y-87942800D01*
X128476666Y-87942800D02*
X128381428Y-87895180D01*
X128381428Y-87895180D02*
X128190952Y-87895180D01*
X128190952Y-87895180D02*
X128095714Y-87942800D01*
X128095714Y-87942800D02*
X128048095Y-87990419D01*
X128048095Y-87990419D02*
X128000476Y-88085657D01*
X128000476Y-88085657D02*
X128000476Y-88895180D01*
X127571904Y-88799942D02*
X127524285Y-88847561D01*
X127524285Y-88847561D02*
X127429047Y-88895180D01*
X127429047Y-88895180D02*
X127190952Y-88895180D01*
X127190952Y-88895180D02*
X127095714Y-88847561D01*
X127095714Y-88847561D02*
X127048095Y-88799942D01*
X127048095Y-88799942D02*
X127000476Y-88704704D01*
X127000476Y-88704704D02*
X127000476Y-88609466D01*
X127000476Y-88609466D02*
X127048095Y-88466609D01*
X127048095Y-88466609D02*
X127619523Y-87895180D01*
X127619523Y-87895180D02*
X127000476Y-87895180D01*
X131619999Y-99194880D02*
X131619999Y-98956785D01*
X131858094Y-99052023D02*
X131619999Y-98956785D01*
X131619999Y-98956785D02*
X131381904Y-99052023D01*
X131762856Y-98766309D02*
X131619999Y-98956785D01*
X131619999Y-98956785D02*
X131477142Y-98766309D01*
X131620000Y-98104519D02*
X131620000Y-98342614D01*
X131381905Y-98247376D02*
X131620000Y-98342614D01*
X131620000Y-98342614D02*
X131858095Y-98247376D01*
X131477143Y-98533090D02*
X131620000Y-98342614D01*
X131620000Y-98342614D02*
X131762857Y-98533090D01*
X151954819Y-90555238D02*
X151478628Y-90888571D01*
X151954819Y-91126666D02*
X150954819Y-91126666D01*
X150954819Y-91126666D02*
X150954819Y-90745714D01*
X150954819Y-90745714D02*
X151002438Y-90650476D01*
X151002438Y-90650476D02*
X151050057Y-90602857D01*
X151050057Y-90602857D02*
X151145295Y-90555238D01*
X151145295Y-90555238D02*
X151288152Y-90555238D01*
X151288152Y-90555238D02*
X151383390Y-90602857D01*
X151383390Y-90602857D02*
X151431009Y-90650476D01*
X151431009Y-90650476D02*
X151478628Y-90745714D01*
X151478628Y-90745714D02*
X151478628Y-91126666D01*
X150954819Y-90269523D02*
X151954819Y-89936190D01*
X151954819Y-89936190D02*
X150954819Y-89602857D01*
X151954819Y-88745714D02*
X151954819Y-89317142D01*
X151954819Y-89031428D02*
X150954819Y-89031428D01*
X150954819Y-89031428D02*
X151097676Y-89126666D01*
X151097676Y-89126666D02*
X151192914Y-89221904D01*
X151192914Y-89221904D02*
X151240533Y-89317142D01*
X148363108Y-107609580D02*
X148315489Y-107657200D01*
X148315489Y-107657200D02*
X148172632Y-107704819D01*
X148172632Y-107704819D02*
X148077394Y-107704819D01*
X148077394Y-107704819D02*
X147934537Y-107657200D01*
X147934537Y-107657200D02*
X147839299Y-107561961D01*
X147839299Y-107561961D02*
X147791680Y-107466723D01*
X147791680Y-107466723D02*
X147744061Y-107276247D01*
X147744061Y-107276247D02*
X147744061Y-107133390D01*
X147744061Y-107133390D02*
X147791680Y-106942914D01*
X147791680Y-106942914D02*
X147839299Y-106847676D01*
X147839299Y-106847676D02*
X147934537Y-106752438D01*
X147934537Y-106752438D02*
X148077394Y-106704819D01*
X148077394Y-106704819D02*
X148172632Y-106704819D01*
X148172632Y-106704819D02*
X148315489Y-106752438D01*
X148315489Y-106752438D02*
X148363108Y-106800057D01*
X148696442Y-106704819D02*
X149315489Y-106704819D01*
X149315489Y-106704819D02*
X148982156Y-107085771D01*
X148982156Y-107085771D02*
X149125013Y-107085771D01*
X149125013Y-107085771D02*
X149220251Y-107133390D01*
X149220251Y-107133390D02*
X149267870Y-107181009D01*
X149267870Y-107181009D02*
X149315489Y-107276247D01*
X149315489Y-107276247D02*
X149315489Y-107514342D01*
X149315489Y-107514342D02*
X149267870Y-107609580D01*
X149267870Y-107609580D02*
X149220251Y-107657200D01*
X149220251Y-107657200D02*
X149125013Y-107704819D01*
X149125013Y-107704819D02*
X148839299Y-107704819D01*
X148839299Y-107704819D02*
X148744061Y-107657200D01*
X148744061Y-107657200D02*
X148696442Y-107609580D01*
X118666666Y-93874819D02*
X118666666Y-94589104D01*
X118666666Y-94589104D02*
X118619047Y-94731961D01*
X118619047Y-94731961D02*
X118523809Y-94827200D01*
X118523809Y-94827200D02*
X118380952Y-94874819D01*
X118380952Y-94874819D02*
X118285714Y-94874819D01*
X119666666Y-94874819D02*
X119095238Y-94874819D01*
X119380952Y-94874819D02*
X119380952Y-93874819D01*
X119380952Y-93874819D02*
X119285714Y-94017676D01*
X119285714Y-94017676D02*
X119190476Y-94112914D01*
X119190476Y-94112914D02*
X119095238Y-94160533D01*
X144143333Y-92954819D02*
X143810000Y-92478628D01*
X143571905Y-92954819D02*
X143571905Y-91954819D01*
X143571905Y-91954819D02*
X143952857Y-91954819D01*
X143952857Y-91954819D02*
X144048095Y-92002438D01*
X144048095Y-92002438D02*
X144095714Y-92050057D01*
X144095714Y-92050057D02*
X144143333Y-92145295D01*
X144143333Y-92145295D02*
X144143333Y-92288152D01*
X144143333Y-92288152D02*
X144095714Y-92383390D01*
X144095714Y-92383390D02*
X144048095Y-92431009D01*
X144048095Y-92431009D02*
X143952857Y-92478628D01*
X143952857Y-92478628D02*
X143571905Y-92478628D01*
X145095714Y-92954819D02*
X144524286Y-92954819D01*
X144810000Y-92954819D02*
X144810000Y-91954819D01*
X144810000Y-91954819D02*
X144714762Y-92097676D01*
X144714762Y-92097676D02*
X144619524Y-92192914D01*
X144619524Y-92192914D02*
X144524286Y-92240533D01*
X136761905Y-70994819D02*
X136761905Y-69994819D01*
X136761905Y-69994819D02*
X137000000Y-69994819D01*
X137000000Y-69994819D02*
X137142857Y-70042438D01*
X137142857Y-70042438D02*
X137238095Y-70137676D01*
X137238095Y-70137676D02*
X137285714Y-70232914D01*
X137285714Y-70232914D02*
X137333333Y-70423390D01*
X137333333Y-70423390D02*
X137333333Y-70566247D01*
X137333333Y-70566247D02*
X137285714Y-70756723D01*
X137285714Y-70756723D02*
X137238095Y-70851961D01*
X137238095Y-70851961D02*
X137142857Y-70947200D01*
X137142857Y-70947200D02*
X137000000Y-70994819D01*
X137000000Y-70994819D02*
X136761905Y-70994819D01*
X137809524Y-70994819D02*
X138000000Y-70994819D01*
X138000000Y-70994819D02*
X138095238Y-70947200D01*
X138095238Y-70947200D02*
X138142857Y-70899580D01*
X138142857Y-70899580D02*
X138238095Y-70756723D01*
X138238095Y-70756723D02*
X138285714Y-70566247D01*
X138285714Y-70566247D02*
X138285714Y-70185295D01*
X138285714Y-70185295D02*
X138238095Y-70090057D01*
X138238095Y-70090057D02*
X138190476Y-70042438D01*
X138190476Y-70042438D02*
X138095238Y-69994819D01*
X138095238Y-69994819D02*
X137904762Y-69994819D01*
X137904762Y-69994819D02*
X137809524Y-70042438D01*
X137809524Y-70042438D02*
X137761905Y-70090057D01*
X137761905Y-70090057D02*
X137714286Y-70185295D01*
X137714286Y-70185295D02*
X137714286Y-70423390D01*
X137714286Y-70423390D02*
X137761905Y-70518628D01*
X137761905Y-70518628D02*
X137809524Y-70566247D01*
X137809524Y-70566247D02*
X137904762Y-70613866D01*
X137904762Y-70613866D02*
X138095238Y-70613866D01*
X138095238Y-70613866D02*
X138190476Y-70566247D01*
X138190476Y-70566247D02*
X138238095Y-70518628D01*
X138238095Y-70518628D02*
X138285714Y-70423390D01*
X101531905Y-94494819D02*
X101531905Y-93494819D01*
X101531905Y-93494819D02*
X101770000Y-93494819D01*
X101770000Y-93494819D02*
X101912857Y-93542438D01*
X101912857Y-93542438D02*
X102008095Y-93637676D01*
X102008095Y-93637676D02*
X102055714Y-93732914D01*
X102055714Y-93732914D02*
X102103333Y-93923390D01*
X102103333Y-93923390D02*
X102103333Y-94066247D01*
X102103333Y-94066247D02*
X102055714Y-94256723D01*
X102055714Y-94256723D02*
X102008095Y-94351961D01*
X102008095Y-94351961D02*
X101912857Y-94447200D01*
X101912857Y-94447200D02*
X101770000Y-94494819D01*
X101770000Y-94494819D02*
X101531905Y-94494819D01*
X103055714Y-94494819D02*
X102484286Y-94494819D01*
X102770000Y-94494819D02*
X102770000Y-93494819D01*
X102770000Y-93494819D02*
X102674762Y-93637676D01*
X102674762Y-93637676D02*
X102579524Y-93732914D01*
X102579524Y-93732914D02*
X102484286Y-93780533D01*
X92031905Y-72494819D02*
X92031905Y-71494819D01*
X92031905Y-71494819D02*
X92270000Y-71494819D01*
X92270000Y-71494819D02*
X92412857Y-71542438D01*
X92412857Y-71542438D02*
X92508095Y-71637676D01*
X92508095Y-71637676D02*
X92555714Y-71732914D01*
X92555714Y-71732914D02*
X92603333Y-71923390D01*
X92603333Y-71923390D02*
X92603333Y-72066247D01*
X92603333Y-72066247D02*
X92555714Y-72256723D01*
X92555714Y-72256723D02*
X92508095Y-72351961D01*
X92508095Y-72351961D02*
X92412857Y-72447200D01*
X92412857Y-72447200D02*
X92270000Y-72494819D01*
X92270000Y-72494819D02*
X92031905Y-72494819D01*
X93174762Y-71923390D02*
X93079524Y-71875771D01*
X93079524Y-71875771D02*
X93031905Y-71828152D01*
X93031905Y-71828152D02*
X92984286Y-71732914D01*
X92984286Y-71732914D02*
X92984286Y-71685295D01*
X92984286Y-71685295D02*
X93031905Y-71590057D01*
X93031905Y-71590057D02*
X93079524Y-71542438D01*
X93079524Y-71542438D02*
X93174762Y-71494819D01*
X93174762Y-71494819D02*
X93365238Y-71494819D01*
X93365238Y-71494819D02*
X93460476Y-71542438D01*
X93460476Y-71542438D02*
X93508095Y-71590057D01*
X93508095Y-71590057D02*
X93555714Y-71685295D01*
X93555714Y-71685295D02*
X93555714Y-71732914D01*
X93555714Y-71732914D02*
X93508095Y-71828152D01*
X93508095Y-71828152D02*
X93460476Y-71875771D01*
X93460476Y-71875771D02*
X93365238Y-71923390D01*
X93365238Y-71923390D02*
X93174762Y-71923390D01*
X93174762Y-71923390D02*
X93079524Y-71971009D01*
X93079524Y-71971009D02*
X93031905Y-72018628D01*
X93031905Y-72018628D02*
X92984286Y-72113866D01*
X92984286Y-72113866D02*
X92984286Y-72304342D01*
X92984286Y-72304342D02*
X93031905Y-72399580D01*
X93031905Y-72399580D02*
X93079524Y-72447200D01*
X93079524Y-72447200D02*
X93174762Y-72494819D01*
X93174762Y-72494819D02*
X93365238Y-72494819D01*
X93365238Y-72494819D02*
X93460476Y-72447200D01*
X93460476Y-72447200D02*
X93508095Y-72399580D01*
X93508095Y-72399580D02*
X93555714Y-72304342D01*
X93555714Y-72304342D02*
X93555714Y-72113866D01*
X93555714Y-72113866D02*
X93508095Y-72018628D01*
X93508095Y-72018628D02*
X93460476Y-71971009D01*
X93460476Y-71971009D02*
X93365238Y-71923390D01*
X110491905Y-57914819D02*
X110491905Y-56914819D01*
X110491905Y-56914819D02*
X110730000Y-56914819D01*
X110730000Y-56914819D02*
X110872857Y-56962438D01*
X110872857Y-56962438D02*
X110968095Y-57057676D01*
X110968095Y-57057676D02*
X111015714Y-57152914D01*
X111015714Y-57152914D02*
X111063333Y-57343390D01*
X111063333Y-57343390D02*
X111063333Y-57486247D01*
X111063333Y-57486247D02*
X111015714Y-57676723D01*
X111015714Y-57676723D02*
X110968095Y-57771961D01*
X110968095Y-57771961D02*
X110872857Y-57867200D01*
X110872857Y-57867200D02*
X110730000Y-57914819D01*
X110730000Y-57914819D02*
X110491905Y-57914819D01*
X111444286Y-57010057D02*
X111491905Y-56962438D01*
X111491905Y-56962438D02*
X111587143Y-56914819D01*
X111587143Y-56914819D02*
X111825238Y-56914819D01*
X111825238Y-56914819D02*
X111920476Y-56962438D01*
X111920476Y-56962438D02*
X111968095Y-57010057D01*
X111968095Y-57010057D02*
X112015714Y-57105295D01*
X112015714Y-57105295D02*
X112015714Y-57200533D01*
X112015714Y-57200533D02*
X111968095Y-57343390D01*
X111968095Y-57343390D02*
X111396667Y-57914819D01*
X111396667Y-57914819D02*
X112015714Y-57914819D01*
X120031905Y-115494819D02*
X120031905Y-114494819D01*
X120031905Y-114494819D02*
X120270000Y-114494819D01*
X120270000Y-114494819D02*
X120412857Y-114542438D01*
X120412857Y-114542438D02*
X120508095Y-114637676D01*
X120508095Y-114637676D02*
X120555714Y-114732914D01*
X120555714Y-114732914D02*
X120603333Y-114923390D01*
X120603333Y-114923390D02*
X120603333Y-115066247D01*
X120603333Y-115066247D02*
X120555714Y-115256723D01*
X120555714Y-115256723D02*
X120508095Y-115351961D01*
X120508095Y-115351961D02*
X120412857Y-115447200D01*
X120412857Y-115447200D02*
X120270000Y-115494819D01*
X120270000Y-115494819D02*
X120031905Y-115494819D01*
X121508095Y-114494819D02*
X121031905Y-114494819D01*
X121031905Y-114494819D02*
X120984286Y-114971009D01*
X120984286Y-114971009D02*
X121031905Y-114923390D01*
X121031905Y-114923390D02*
X121127143Y-114875771D01*
X121127143Y-114875771D02*
X121365238Y-114875771D01*
X121365238Y-114875771D02*
X121460476Y-114923390D01*
X121460476Y-114923390D02*
X121508095Y-114971009D01*
X121508095Y-114971009D02*
X121555714Y-115066247D01*
X121555714Y-115066247D02*
X121555714Y-115304342D01*
X121555714Y-115304342D02*
X121508095Y-115399580D01*
X121508095Y-115399580D02*
X121460476Y-115447200D01*
X121460476Y-115447200D02*
X121365238Y-115494819D01*
X121365238Y-115494819D02*
X121127143Y-115494819D01*
X121127143Y-115494819D02*
X121031905Y-115447200D01*
X121031905Y-115447200D02*
X120984286Y-115399580D01*
X175491905Y-88994819D02*
X175491905Y-87994819D01*
X175491905Y-87994819D02*
X175730000Y-87994819D01*
X175730000Y-87994819D02*
X175872857Y-88042438D01*
X175872857Y-88042438D02*
X175968095Y-88137676D01*
X175968095Y-88137676D02*
X176015714Y-88232914D01*
X176015714Y-88232914D02*
X176063333Y-88423390D01*
X176063333Y-88423390D02*
X176063333Y-88566247D01*
X176063333Y-88566247D02*
X176015714Y-88756723D01*
X176015714Y-88756723D02*
X175968095Y-88851961D01*
X175968095Y-88851961D02*
X175872857Y-88947200D01*
X175872857Y-88947200D02*
X175730000Y-88994819D01*
X175730000Y-88994819D02*
X175491905Y-88994819D01*
X176396667Y-87994819D02*
X177063333Y-87994819D01*
X177063333Y-87994819D02*
X176634762Y-88994819D01*
X180555714Y-69494819D02*
X180555714Y-68494819D01*
X180555714Y-68494819D02*
X180793809Y-68494819D01*
X180793809Y-68494819D02*
X180936666Y-68542438D01*
X180936666Y-68542438D02*
X181031904Y-68637676D01*
X181031904Y-68637676D02*
X181079523Y-68732914D01*
X181079523Y-68732914D02*
X181127142Y-68923390D01*
X181127142Y-68923390D02*
X181127142Y-69066247D01*
X181127142Y-69066247D02*
X181079523Y-69256723D01*
X181079523Y-69256723D02*
X181031904Y-69351961D01*
X181031904Y-69351961D02*
X180936666Y-69447200D01*
X180936666Y-69447200D02*
X180793809Y-69494819D01*
X180793809Y-69494819D02*
X180555714Y-69494819D01*
X182079523Y-69494819D02*
X181508095Y-69494819D01*
X181793809Y-69494819D02*
X181793809Y-68494819D01*
X181793809Y-68494819D02*
X181698571Y-68637676D01*
X181698571Y-68637676D02*
X181603333Y-68732914D01*
X181603333Y-68732914D02*
X181508095Y-68780533D01*
X182460476Y-68590057D02*
X182508095Y-68542438D01*
X182508095Y-68542438D02*
X182603333Y-68494819D01*
X182603333Y-68494819D02*
X182841428Y-68494819D01*
X182841428Y-68494819D02*
X182936666Y-68542438D01*
X182936666Y-68542438D02*
X182984285Y-68590057D01*
X182984285Y-68590057D02*
X183031904Y-68685295D01*
X183031904Y-68685295D02*
X183031904Y-68780533D01*
X183031904Y-68780533D02*
X182984285Y-68923390D01*
X182984285Y-68923390D02*
X182412857Y-69494819D01*
X182412857Y-69494819D02*
X183031904Y-69494819D01*
X142166666Y-75574819D02*
X142166666Y-76289104D01*
X142166666Y-76289104D02*
X142119047Y-76431961D01*
X142119047Y-76431961D02*
X142023809Y-76527200D01*
X142023809Y-76527200D02*
X141880952Y-76574819D01*
X141880952Y-76574819D02*
X141785714Y-76574819D01*
X142595238Y-75670057D02*
X142642857Y-75622438D01*
X142642857Y-75622438D02*
X142738095Y-75574819D01*
X142738095Y-75574819D02*
X142976190Y-75574819D01*
X142976190Y-75574819D02*
X143071428Y-75622438D01*
X143071428Y-75622438D02*
X143119047Y-75670057D01*
X143119047Y-75670057D02*
X143166666Y-75765295D01*
X143166666Y-75765295D02*
X143166666Y-75860533D01*
X143166666Y-75860533D02*
X143119047Y-76003390D01*
X143119047Y-76003390D02*
X142547619Y-76574819D01*
X142547619Y-76574819D02*
X143166666Y-76574819D01*
%TO.C,D6*%
D12*
X164671437Y-55580000D02*
G75*
G02*
X161440000Y-55735516I-1671437J1080000D01*
G01*
X164040961Y-55580000D02*
G75*
G02*
X161959039Y-55580000I-1040961J1080000D01*
G01*
X161959039Y-53420000D02*
G75*
G02*
X164040961Y-53420000I1040961J-1080000D01*
G01*
X161440000Y-53264484D02*
G75*
G02*
X164671437Y-53420000I1560000J-1235516D01*
G01*
X161440000Y-55580000D02*
X161440000Y-55736000D01*
X161440000Y-53264000D02*
X161440000Y-53420000D01*
%TO.C,D11*%
X159401437Y-114580000D02*
G75*
G02*
X156170000Y-114735516I-1671437J1080000D01*
G01*
X158770961Y-114580000D02*
G75*
G02*
X156689039Y-114580000I-1040961J1080000D01*
G01*
X156689039Y-112420000D02*
G75*
G02*
X158770961Y-112420000I1040961J-1080000D01*
G01*
X156170000Y-112264484D02*
G75*
G02*
X159401437Y-112420000I1560000J-1235516D01*
G01*
X156170000Y-114580000D02*
X156170000Y-114736000D01*
X156170000Y-112264000D02*
X156170000Y-112420000D01*
%TO.C,D10*%
X135670000Y-131264000D02*
X135670000Y-131420000D01*
X135670000Y-133580000D02*
X135670000Y-133736000D01*
X135670000Y-131264484D02*
G75*
G02*
X138901437Y-131420000I1560000J-1235516D01*
G01*
X136189039Y-131420000D02*
G75*
G02*
X138270961Y-131420000I1040961J-1080000D01*
G01*
X138270961Y-133580000D02*
G75*
G02*
X136189039Y-133580000I-1040961J1080000D01*
G01*
X138901437Y-133580000D02*
G75*
G02*
X135670000Y-133735516I-1671437J1080000D01*
G01*
%TO.C,C4*%
X130630000Y-105130000D02*
X138370000Y-105130000D01*
X130630000Y-107870000D02*
X130630000Y-105130000D01*
X138370000Y-105130000D02*
X138370000Y-107870000D01*
X138370000Y-107870000D02*
X130630000Y-107870000D01*
%TO.C,R4*%
X112870000Y-103230000D02*
X112540000Y-103230000D01*
X110130000Y-103230000D02*
X110460000Y-103230000D01*
X112870000Y-109770000D02*
X112870000Y-103230000D01*
X112540000Y-109770000D02*
X112870000Y-109770000D01*
X110460000Y-109770000D02*
X110130000Y-109770000D01*
X110130000Y-109770000D02*
X110130000Y-103230000D01*
%TO.C,U1*%
X149140000Y-97855000D02*
X138860000Y-97855000D01*
X138860000Y-97855000D02*
X138860000Y-103155000D01*
X149140000Y-99505000D02*
X149140000Y-97855000D01*
X149140000Y-103155000D02*
X149140000Y-101505000D01*
X138860000Y-103155000D02*
X149140000Y-103155000D01*
X149140000Y-101505000D02*
G75*
G02*
X149140000Y-99505000I0J1000000D01*
G01*
%TO.C,U2*%
D13*
X124508000Y-95538569D02*
X124508000Y-96401431D01*
X124508000Y-92998569D02*
X124508000Y-93861431D01*
X124508000Y-90458569D02*
X124508000Y-91321431D01*
X124508000Y-87918569D02*
X124508000Y-88781431D01*
X124508000Y-85378569D02*
X124508000Y-86241431D01*
X124508000Y-82838569D02*
X124508000Y-83701431D01*
X131112000Y-81161431D02*
X131112000Y-80298569D01*
X131112000Y-83701431D02*
X131112000Y-82838569D01*
X131112000Y-86241431D02*
X131112000Y-85378569D01*
X131112000Y-88781431D02*
X131112000Y-87918569D01*
X131112000Y-91321431D02*
X131112000Y-90458569D01*
X131112000Y-93861431D02*
X131112000Y-92998569D01*
X127505200Y-98192500D02*
G75*
G02*
X128114800Y-98192500I304800J0D01*
G01*
X131112000Y-96259560D02*
X131112000Y-95538569D01*
X124508000Y-98192500D02*
X130838835Y-98192500D01*
X124508000Y-80298569D02*
X124508000Y-81161431D01*
X131112000Y-78507500D02*
X124508000Y-78507500D01*
%TO.C,RV1*%
D12*
X152390000Y-94920000D02*
X157610000Y-94920000D01*
X152390000Y-94920000D02*
X152390000Y-92800000D01*
X157610000Y-94920000D02*
X157610000Y-85000000D01*
X152390000Y-92100000D02*
X152390000Y-85000000D01*
X152390000Y-85000000D02*
X157610000Y-85000000D01*
X152390000Y-92500000D02*
X152060000Y-92740000D01*
X152060000Y-92260000D01*
X152390000Y-92500000D01*
G36*
X152390000Y-92500000D02*
G01*
X152060000Y-92740000D01*
X152060000Y-92260000D01*
X152390000Y-92500000D01*
G37*
%TO.C,C3*%
X145725000Y-109525000D02*
X146225000Y-109525000D01*
X145975000Y-109275000D02*
X145975000Y-109775000D01*
X148529775Y-108420000D02*
X148529775Y-109960000D01*
X148529775Y-112040000D02*
X148529775Y-113580000D01*
X148569775Y-108420000D02*
X148569775Y-109960000D01*
X148569775Y-112040000D02*
X148569775Y-113580000D01*
X148609775Y-108421000D02*
X148609775Y-109960000D01*
X148609775Y-112040000D02*
X148609775Y-113579000D01*
X148649775Y-108423000D02*
X148649775Y-109960000D01*
X148649775Y-112040000D02*
X148649775Y-113577000D01*
X148689775Y-108425000D02*
X148689775Y-109960000D01*
X148689775Y-112040000D02*
X148689775Y-113575000D01*
X148729775Y-108428000D02*
X148729775Y-109960000D01*
X148729775Y-112040000D02*
X148729775Y-113572000D01*
X148769775Y-108431000D02*
X148769775Y-109960000D01*
X148769775Y-112040000D02*
X148769775Y-113569000D01*
X148809775Y-108435000D02*
X148809775Y-109960000D01*
X148809775Y-112040000D02*
X148809775Y-113565000D01*
X148849775Y-108440000D02*
X148849775Y-109960000D01*
X148849775Y-112040000D02*
X148849775Y-113560000D01*
X148889775Y-108445000D02*
X148889775Y-109960000D01*
X148889775Y-112040000D02*
X148889775Y-113555000D01*
X148929775Y-108451000D02*
X148929775Y-109960000D01*
X148929775Y-112040000D02*
X148929775Y-113549000D01*
X148969775Y-108457000D02*
X148969775Y-109960000D01*
X148969775Y-112040000D02*
X148969775Y-113543000D01*
X149009775Y-108464000D02*
X149009775Y-109960000D01*
X149009775Y-112040000D02*
X149009775Y-113536000D01*
X149049775Y-108472000D02*
X149049775Y-109960000D01*
X149049775Y-112040000D02*
X149049775Y-113528000D01*
X149089775Y-108481000D02*
X149089775Y-109960000D01*
X149089775Y-112040000D02*
X149089775Y-113519000D01*
X149129775Y-108490000D02*
X149129775Y-109960000D01*
X149129775Y-112040000D02*
X149129775Y-113510000D01*
X149169775Y-108499000D02*
X149169775Y-109960000D01*
X149169775Y-112040000D02*
X149169775Y-113501000D01*
X149209775Y-108510000D02*
X149209775Y-109960000D01*
X149209775Y-112040000D02*
X149209775Y-113490000D01*
X149249775Y-108521000D02*
X149249775Y-109960000D01*
X149249775Y-112040000D02*
X149249775Y-113479000D01*
X149289775Y-108533000D02*
X149289775Y-109960000D01*
X149289775Y-112040000D02*
X149289775Y-113467000D01*
X149329775Y-108545000D02*
X149329775Y-109960000D01*
X149329775Y-112040000D02*
X149329775Y-113455000D01*
X149369775Y-108558000D02*
X149369775Y-109960000D01*
X149369775Y-112040000D02*
X149369775Y-113442000D01*
X149409775Y-108572000D02*
X149409775Y-109960000D01*
X149409775Y-112040000D02*
X149409775Y-113428000D01*
X149449775Y-108587000D02*
X149449775Y-109960000D01*
X149449775Y-112040000D02*
X149449775Y-113413000D01*
X149489775Y-108602000D02*
X149489775Y-109960000D01*
X149489775Y-112040000D02*
X149489775Y-113398000D01*
X149529775Y-108618000D02*
X149529775Y-109960000D01*
X149529775Y-112040000D02*
X149529775Y-113382000D01*
X149569775Y-108635000D02*
X149569775Y-109960000D01*
X149569775Y-112040000D02*
X149569775Y-113365000D01*
X149609775Y-108653000D02*
X149609775Y-109960000D01*
X149609775Y-112040000D02*
X149609775Y-113347000D01*
X149649775Y-108671000D02*
X149649775Y-109960000D01*
X149649775Y-112040000D02*
X149649775Y-113329000D01*
X149689775Y-108691000D02*
X149689775Y-109960000D01*
X149689775Y-112040000D02*
X149689775Y-113309000D01*
X149729775Y-108711000D02*
X149729775Y-109960000D01*
X149729775Y-112040000D02*
X149729775Y-113289000D01*
X149769775Y-108732000D02*
X149769775Y-109960000D01*
X149769775Y-112040000D02*
X149769775Y-113268000D01*
X149809775Y-108754000D02*
X149809775Y-109960000D01*
X149809775Y-112040000D02*
X149809775Y-113246000D01*
X149849775Y-108777000D02*
X149849775Y-109960000D01*
X149849775Y-112040000D02*
X149849775Y-113223000D01*
X149889775Y-108801000D02*
X149889775Y-109960000D01*
X149889775Y-112040000D02*
X149889775Y-113199000D01*
X149929775Y-108825000D02*
X149929775Y-109960000D01*
X149929775Y-112040000D02*
X149929775Y-113175000D01*
X149969775Y-108851000D02*
X149969775Y-109960000D01*
X149969775Y-112040000D02*
X149969775Y-113149000D01*
X150009775Y-108878000D02*
X150009775Y-109960000D01*
X150009775Y-112040000D02*
X150009775Y-113122000D01*
X150049775Y-108906000D02*
X150049775Y-109960000D01*
X150049775Y-112040000D02*
X150049775Y-113094000D01*
X150089775Y-108935000D02*
X150089775Y-109960000D01*
X150089775Y-112040000D02*
X150089775Y-113065000D01*
X150129775Y-108965000D02*
X150129775Y-109960000D01*
X150129775Y-112040000D02*
X150129775Y-113035000D01*
X150169775Y-108997000D02*
X150169775Y-109960000D01*
X150169775Y-112040000D02*
X150169775Y-113003000D01*
X150209775Y-109030000D02*
X150209775Y-109960000D01*
X150209775Y-112040000D02*
X150209775Y-112970000D01*
X150249775Y-109064000D02*
X150249775Y-109960000D01*
X150249775Y-112040000D02*
X150249775Y-112936000D01*
X150289775Y-109099000D02*
X150289775Y-109960000D01*
X150289775Y-112040000D02*
X150289775Y-112901000D01*
X150329775Y-109136000D02*
X150329775Y-109960000D01*
X150329775Y-112040000D02*
X150329775Y-112864000D01*
X150369775Y-109175000D02*
X150369775Y-109960000D01*
X150369775Y-112040000D02*
X150369775Y-112825000D01*
X150409775Y-109215000D02*
X150409775Y-109960000D01*
X150409775Y-112040000D02*
X150409775Y-112785000D01*
X150449775Y-109257000D02*
X150449775Y-109960000D01*
X150449775Y-112040000D02*
X150449775Y-112743000D01*
X150489775Y-109301000D02*
X150489775Y-109960000D01*
X150489775Y-112040000D02*
X150489775Y-112699000D01*
X150529775Y-109348000D02*
X150529775Y-109960000D01*
X150529775Y-112040000D02*
X150529775Y-112652000D01*
X150569775Y-109396000D02*
X150569775Y-112604000D01*
X150609775Y-109447000D02*
X150609775Y-112553000D01*
X150649775Y-109501000D02*
X150649775Y-112499000D01*
X150689775Y-109557000D02*
X150689775Y-112443000D01*
X150729775Y-109617000D02*
X150729775Y-112383000D01*
X150769775Y-109681000D02*
X150769775Y-112319000D01*
X150809775Y-109749000D02*
X150809775Y-112251000D01*
X150849775Y-109823000D02*
X150849775Y-112177000D01*
X150889775Y-109902000D02*
X150889775Y-112098000D01*
X150929775Y-109989000D02*
X150929775Y-112011000D01*
X150969775Y-110086000D02*
X150969775Y-111914000D01*
X151009775Y-110195000D02*
X151009775Y-111805000D01*
X151049775Y-110323000D02*
X151049775Y-111677000D01*
X151089775Y-110483000D02*
X151089775Y-111517000D01*
X151129775Y-110717000D02*
X151129775Y-111283000D01*
X151149775Y-111000000D02*
G75*
G02*
X145909775Y-111000000I-2620000J0D01*
G01*
X145909775Y-111000000D02*
G75*
G02*
X151149775Y-111000000I2620000J0D01*
G01*
%TO.C,J1*%
X117620000Y-90770000D02*
X117620000Y-88120000D01*
X120380000Y-88120000D02*
X117620000Y-88120000D01*
X120380000Y-90770000D02*
X117620000Y-90770000D01*
X120380000Y-90770000D02*
X120380000Y-88120000D01*
X120380000Y-92040000D02*
X120380000Y-93420000D01*
X120380000Y-93420000D02*
X119000000Y-93420000D01*
%TO.C,R1*%
X147580000Y-93870000D02*
X147580000Y-93540000D01*
X147580000Y-91130000D02*
X147580000Y-91460000D01*
X141040000Y-93870000D02*
X147580000Y-93870000D01*
X141040000Y-93540000D02*
X141040000Y-93870000D01*
X141040000Y-91460000D02*
X141040000Y-91130000D01*
X141040000Y-91130000D02*
X147580000Y-91130000D01*
%TO.C,D9*%
X139171437Y-74580000D02*
G75*
G02*
X135940000Y-74735516I-1671437J1080000D01*
G01*
X138540961Y-74580000D02*
G75*
G02*
X136459039Y-74580000I-1040961J1080000D01*
G01*
X136459039Y-72420000D02*
G75*
G02*
X138540961Y-72420000I1040961J-1080000D01*
G01*
X135940000Y-72264484D02*
G75*
G02*
X139171437Y-72420000I1560000J-1235516D01*
G01*
X135940000Y-74580000D02*
X135940000Y-74736000D01*
X135940000Y-72264000D02*
X135940000Y-72420000D01*
%TO.C,D1*%
X103941437Y-98080000D02*
G75*
G02*
X100710000Y-98235516I-1671437J1080000D01*
G01*
X103310961Y-98080000D02*
G75*
G02*
X101229039Y-98080000I-1040961J1080000D01*
G01*
X101229039Y-95920000D02*
G75*
G02*
X103310961Y-95920000I1040961J-1080000D01*
G01*
X100710000Y-95764484D02*
G75*
G02*
X103941437Y-95920000I1560000J-1235516D01*
G01*
X100710000Y-98080000D02*
X100710000Y-98236000D01*
X100710000Y-95764000D02*
X100710000Y-95920000D01*
%TO.C,D8*%
X94441437Y-76080000D02*
G75*
G02*
X91210000Y-76235516I-1671437J1080000D01*
G01*
X93810961Y-76080000D02*
G75*
G02*
X91729039Y-76080000I-1040961J1080000D01*
G01*
X91729039Y-73920000D02*
G75*
G02*
X93810961Y-73920000I1040961J-1080000D01*
G01*
X91210000Y-73764484D02*
G75*
G02*
X94441437Y-73920000I1560000J-1235516D01*
G01*
X91210000Y-76080000D02*
X91210000Y-76236000D01*
X91210000Y-73764000D02*
X91210000Y-73920000D01*
%TO.C,D2*%
X109558563Y-53420000D02*
G75*
G02*
X112790000Y-53264484I1671437J-1080000D01*
G01*
X110189039Y-53420000D02*
G75*
G02*
X112270961Y-53420000I1040961J-1080000D01*
G01*
X112270961Y-55580000D02*
G75*
G02*
X110189039Y-55580000I-1040961J1080000D01*
G01*
X112790000Y-55735516D02*
G75*
G02*
X109558563Y-55580000I-1560000J1235516D01*
G01*
X112790000Y-53420000D02*
X112790000Y-53264000D01*
X112790000Y-55736000D02*
X112790000Y-55580000D01*
%TO.C,D5*%
X119210000Y-116764000D02*
X119210000Y-116920000D01*
X119210000Y-119080000D02*
X119210000Y-119236000D01*
X119210000Y-116764484D02*
G75*
G02*
X122441437Y-116920000I1560000J-1235516D01*
G01*
X119729039Y-116920000D02*
G75*
G02*
X121810961Y-116920000I1040961J-1080000D01*
G01*
X121810961Y-119080000D02*
G75*
G02*
X119729039Y-119080000I-1040961J1080000D01*
G01*
X122441437Y-119080000D02*
G75*
G02*
X119210000Y-119235516I-1671437J1080000D01*
G01*
%TO.C,D7*%
X177901437Y-92580000D02*
G75*
G02*
X174670000Y-92735516I-1671437J1080000D01*
G01*
X177270961Y-92580000D02*
G75*
G02*
X175189039Y-92580000I-1040961J1080000D01*
G01*
X175189039Y-90420000D02*
G75*
G02*
X177270961Y-90420000I1040961J-1080000D01*
G01*
X174670000Y-90264484D02*
G75*
G02*
X177901437Y-90420000I1560000J-1235516D01*
G01*
X174670000Y-92580000D02*
X174670000Y-92736000D01*
X174670000Y-90264000D02*
X174670000Y-90420000D01*
%TO.C,D12*%
X183441437Y-73080000D02*
G75*
G02*
X180210000Y-73235516I-1671437J1080000D01*
G01*
X182810961Y-73080000D02*
G75*
G02*
X180729039Y-73080000I-1040961J1080000D01*
G01*
X180729039Y-70920000D02*
G75*
G02*
X182810961Y-70920000I1040961J-1080000D01*
G01*
X180210000Y-70764484D02*
G75*
G02*
X183441437Y-70920000I1560000J-1235516D01*
G01*
X180210000Y-73080000D02*
X180210000Y-73236000D01*
X180210000Y-70764000D02*
X180210000Y-70920000D01*
%TO.C,J2*%
X141120000Y-77120000D02*
X142500000Y-77120000D01*
X141120000Y-78500000D02*
X141120000Y-77120000D01*
X141120000Y-79770000D02*
X141120000Y-79880000D01*
X141120000Y-79770000D02*
X143880000Y-79770000D01*
X141120000Y-79880000D02*
X143880000Y-79880000D01*
X143880000Y-79770000D02*
X143880000Y-79880000D01*
%TD*%
M02*
