%TF.GenerationSoftware,KiCad,Pcbnew,10.0.3*%
%TF.CreationDate,2026-06-03T17:59:07-05:00*%
%TF.ProjectId,Blinky Light,426c696e-6b79-4204-9c69-6768742e6b69,rev?*%
%TF.SameCoordinates,Original*%
%TF.FileFunction,Copper,L1,Top*%
%TF.FilePolarity,Positive*%
%FSLAX46Y46*%
G04 Gerber Fmt 4.6, Leading zero omitted, Abs format (unit mm)*
G04 Created by KiCad (PCBNEW 10.0.3) date 2026-06-03 17:59:07*
%MOMM*%
%LPD*%
G01*
G04 APERTURE LIST*
G04 Aperture macros list*
%AMRoundRect*
0 Rectangle with rounded corners*
0 $1 Rounding radius*
0 $2 $3 $4 $5 $6 $7 $8 $9 X,Y pos of 4 corners*
0 Add a 4 corners polygon primitive as box body*
4,1,4,$2,$3,$4,$5,$6,$7,$8,$9,$2,$3,0*
0 Add four circle primitives for the rounded corners*
1,1,$1+$1,$2,$3*
1,1,$1+$1,$4,$5*
1,1,$1+$1,$6,$7*
1,1,$1+$1,$8,$9*
0 Add four rect primitives between the rounded corners*
20,1,$1+$1,$2,$3,$4,$5,0*
20,1,$1+$1,$4,$5,$6,$7,0*
20,1,$1+$1,$6,$7,$8,$9,0*
20,1,$1+$1,$8,$9,$2,$3,0*%
G04 Aperture macros list end*
%ADD10C,0.300000*%
%TA.AperFunction,NonConductor*%
%ADD11C,0.300000*%
%TD*%
%TA.AperFunction,ComponentPad*%
%ADD12C,1.800000*%
%TD*%
%TA.AperFunction,ComponentPad*%
%ADD13R,1.800000X1.800000*%
%TD*%
%TA.AperFunction,ComponentPad*%
%ADD14C,2.000000*%
%TD*%
%TA.AperFunction,ComponentPad*%
%ADD15C,1.600000*%
%TD*%
%TA.AperFunction,ComponentPad*%
%ADD16RoundRect,0.250000X-0.550000X0.550000X-0.550000X-0.550000X0.550000X-0.550000X0.550000X0.550000X0*%
%TD*%
%TA.AperFunction,ComponentPad*%
%ADD17C,1.295400*%
%TD*%
%TA.AperFunction,ComponentPad*%
%ADD18R,1.295400X1.295400*%
%TD*%
%TA.AperFunction,ComponentPad*%
%ADD19RoundRect,0.412500X0.412500X-0.412500X0.412500X0.412500X-0.412500X0.412500X-0.412500X-0.412500X0*%
%TD*%
%TA.AperFunction,ComponentPad*%
%ADD20C,1.650000*%
%TD*%
%TA.AperFunction,ComponentPad*%
%ADD21RoundRect,0.250000X-0.550000X-0.550000X0.550000X-0.550000X0.550000X0.550000X-0.550000X0.550000X0*%
%TD*%
%TA.AperFunction,ComponentPad*%
%ADD22C,1.700000*%
%TD*%
%TA.AperFunction,ComponentPad*%
%ADD23R,1.700000X1.700000*%
%TD*%
%TA.AperFunction,ViaPad*%
%ADD24C,0.600000*%
%TD*%
%TA.AperFunction,Conductor*%
%ADD25C,0.200000*%
%TD*%
G04 APERTURE END LIST*
D10*
D11*
X102483082Y-69800828D02*
X102483082Y-70872257D01*
X102483082Y-70872257D02*
X102411653Y-71086542D01*
X102411653Y-71086542D02*
X102268796Y-71229400D01*
X102268796Y-71229400D02*
X102054510Y-71300828D01*
X102054510Y-71300828D02*
X101911653Y-71300828D01*
X103840225Y-70300828D02*
X103840225Y-71300828D01*
X103197367Y-70300828D02*
X103197367Y-71086542D01*
X103197367Y-71086542D02*
X103268796Y-71229400D01*
X103268796Y-71229400D02*
X103411653Y-71300828D01*
X103411653Y-71300828D02*
X103625939Y-71300828D01*
X103625939Y-71300828D02*
X103768796Y-71229400D01*
X103768796Y-71229400D02*
X103840225Y-71157971D01*
X104554510Y-70300828D02*
X104554510Y-71300828D01*
X104554510Y-70443685D02*
X104625939Y-70372257D01*
X104625939Y-70372257D02*
X104768796Y-70300828D01*
X104768796Y-70300828D02*
X104983082Y-70300828D01*
X104983082Y-70300828D02*
X105125939Y-70372257D01*
X105125939Y-70372257D02*
X105197368Y-70515114D01*
X105197368Y-70515114D02*
X105197368Y-71300828D01*
X106483082Y-71229400D02*
X106340225Y-71300828D01*
X106340225Y-71300828D02*
X106054511Y-71300828D01*
X106054511Y-71300828D02*
X105911653Y-71229400D01*
X105911653Y-71229400D02*
X105840225Y-71086542D01*
X105840225Y-71086542D02*
X105840225Y-70515114D01*
X105840225Y-70515114D02*
X105911653Y-70372257D01*
X105911653Y-70372257D02*
X106054511Y-70300828D01*
X106054511Y-70300828D02*
X106340225Y-70300828D01*
X106340225Y-70300828D02*
X106483082Y-70372257D01*
X106483082Y-70372257D02*
X106554511Y-70515114D01*
X106554511Y-70515114D02*
X106554511Y-70657971D01*
X106554511Y-70657971D02*
X105840225Y-70800828D01*
X108268796Y-69943685D02*
X108340224Y-69872257D01*
X108340224Y-69872257D02*
X108483082Y-69800828D01*
X108483082Y-69800828D02*
X108840224Y-69800828D01*
X108840224Y-69800828D02*
X108983082Y-69872257D01*
X108983082Y-69872257D02*
X109054510Y-69943685D01*
X109054510Y-69943685D02*
X109125939Y-70086542D01*
X109125939Y-70086542D02*
X109125939Y-70229400D01*
X109125939Y-70229400D02*
X109054510Y-70443685D01*
X109054510Y-70443685D02*
X108197367Y-71300828D01*
X108197367Y-71300828D02*
X109125939Y-71300828D01*
X110554510Y-71300828D02*
X109697367Y-71300828D01*
X110125938Y-71300828D02*
X110125938Y-69800828D01*
X110125938Y-69800828D02*
X109983081Y-70015114D01*
X109983081Y-70015114D02*
X109840224Y-70157971D01*
X109840224Y-70157971D02*
X109697367Y-70229400D01*
X111268795Y-71229400D02*
X111268795Y-71300828D01*
X111268795Y-71300828D02*
X111197366Y-71443685D01*
X111197366Y-71443685D02*
X111125938Y-71515114D01*
X112983081Y-69943685D02*
X113054509Y-69872257D01*
X113054509Y-69872257D02*
X113197367Y-69800828D01*
X113197367Y-69800828D02*
X113554509Y-69800828D01*
X113554509Y-69800828D02*
X113697367Y-69872257D01*
X113697367Y-69872257D02*
X113768795Y-69943685D01*
X113768795Y-69943685D02*
X113840224Y-70086542D01*
X113840224Y-70086542D02*
X113840224Y-70229400D01*
X113840224Y-70229400D02*
X113768795Y-70443685D01*
X113768795Y-70443685D02*
X112911652Y-71300828D01*
X112911652Y-71300828D02*
X113840224Y-71300828D01*
X114768795Y-69800828D02*
X114911652Y-69800828D01*
X114911652Y-69800828D02*
X115054509Y-69872257D01*
X115054509Y-69872257D02*
X115125938Y-69943685D01*
X115125938Y-69943685D02*
X115197366Y-70086542D01*
X115197366Y-70086542D02*
X115268795Y-70372257D01*
X115268795Y-70372257D02*
X115268795Y-70729400D01*
X115268795Y-70729400D02*
X115197366Y-71015114D01*
X115197366Y-71015114D02*
X115125938Y-71157971D01*
X115125938Y-71157971D02*
X115054509Y-71229400D01*
X115054509Y-71229400D02*
X114911652Y-71300828D01*
X114911652Y-71300828D02*
X114768795Y-71300828D01*
X114768795Y-71300828D02*
X114625938Y-71229400D01*
X114625938Y-71229400D02*
X114554509Y-71157971D01*
X114554509Y-71157971D02*
X114483080Y-71015114D01*
X114483080Y-71015114D02*
X114411652Y-70729400D01*
X114411652Y-70729400D02*
X114411652Y-70372257D01*
X114411652Y-70372257D02*
X114483080Y-70086542D01*
X114483080Y-70086542D02*
X114554509Y-69943685D01*
X114554509Y-69943685D02*
X114625938Y-69872257D01*
X114625938Y-69872257D02*
X114768795Y-69800828D01*
X115840223Y-69943685D02*
X115911651Y-69872257D01*
X115911651Y-69872257D02*
X116054509Y-69800828D01*
X116054509Y-69800828D02*
X116411651Y-69800828D01*
X116411651Y-69800828D02*
X116554509Y-69872257D01*
X116554509Y-69872257D02*
X116625937Y-69943685D01*
X116625937Y-69943685D02*
X116697366Y-70086542D01*
X116697366Y-70086542D02*
X116697366Y-70229400D01*
X116697366Y-70229400D02*
X116625937Y-70443685D01*
X116625937Y-70443685D02*
X115768794Y-71300828D01*
X115768794Y-71300828D02*
X116697366Y-71300828D01*
X117983080Y-69800828D02*
X117697365Y-69800828D01*
X117697365Y-69800828D02*
X117554508Y-69872257D01*
X117554508Y-69872257D02*
X117483080Y-69943685D01*
X117483080Y-69943685D02*
X117340222Y-70157971D01*
X117340222Y-70157971D02*
X117268794Y-70443685D01*
X117268794Y-70443685D02*
X117268794Y-71015114D01*
X117268794Y-71015114D02*
X117340222Y-71157971D01*
X117340222Y-71157971D02*
X117411651Y-71229400D01*
X117411651Y-71229400D02*
X117554508Y-71300828D01*
X117554508Y-71300828D02*
X117840222Y-71300828D01*
X117840222Y-71300828D02*
X117983080Y-71229400D01*
X117983080Y-71229400D02*
X118054508Y-71157971D01*
X118054508Y-71157971D02*
X118125937Y-71015114D01*
X118125937Y-71015114D02*
X118125937Y-70657971D01*
X118125937Y-70657971D02*
X118054508Y-70515114D01*
X118054508Y-70515114D02*
X117983080Y-70443685D01*
X117983080Y-70443685D02*
X117840222Y-70372257D01*
X117840222Y-70372257D02*
X117554508Y-70372257D01*
X117554508Y-70372257D02*
X117411651Y-70443685D01*
X117411651Y-70443685D02*
X117340222Y-70515114D01*
X117340222Y-70515114D02*
X117268794Y-70657971D01*
D12*
%TO.P,D6,2,A_2*%
%TO.N,Net-(D6-A)*%
X164270000Y-54500000D03*
D13*
%TO.P,D6,1,K_1*%
%TO.N,Net-(D1-K)*%
X161730000Y-54500000D03*
%TD*%
D12*
%TO.P,D11,2,A_2*%
%TO.N,Net-(D11-A)*%
X159000000Y-113500000D03*
D13*
%TO.P,D11,1,K_1*%
%TO.N,Net-(D1-K)*%
X156460000Y-113500000D03*
%TD*%
%TO.P,D10,1,K_1*%
%TO.N,Net-(D1-K)*%
X135960000Y-132500000D03*
D12*
%TO.P,D10,2,A_2*%
%TO.N,Net-(D10-A)*%
X138500000Y-132500000D03*
%TD*%
D14*
%TO.P,C4,1*%
%TO.N,GND*%
X132000000Y-106500000D03*
%TO.P,C4,2*%
%TO.N,Net-(U1-CONT)*%
X137000000Y-106500000D03*
%TD*%
D15*
%TO.P,R4,2*%
%TO.N,GND*%
X111500000Y-102690000D03*
%TO.P,R4,1*%
%TO.N,Net-(D1-K)*%
X111500000Y-110310000D03*
%TD*%
D16*
%TO.P,U1,1,GND_1*%
%TO.N,GND*%
X147810000Y-96695000D03*
D15*
%TO.P,U1,2,TRIG_2*%
%TO.N,TR*%
X145270000Y-96695000D03*
%TO.P,U1,3,OUT_3*%
%TO.N,OUT*%
X142730000Y-96695000D03*
%TO.P,U1,4,~{RST}_4*%
%TO.N,+5V*%
X140190000Y-96695000D03*
%TO.P,U1,5,CONT_5*%
%TO.N,Net-(U1-CONT)*%
X140190000Y-104315000D03*
%TO.P,U1,6,THRES_6*%
%TO.N,TR*%
X142730000Y-104315000D03*
%TO.P,U1,7,DISCH_7*%
%TO.N,Net-(U1-DISCH)*%
X145270000Y-104315000D03*
%TO.P,U1,8,VCC_8*%
%TO.N,+5V*%
X147810000Y-104315000D03*
%TD*%
D17*
%TO.P,U2,16,VDD_16*%
%TO.N,+5V*%
X124000000Y-97240000D03*
%TO.P,U2,15,Reset_15*%
%TO.N,GND*%
X124000000Y-94700000D03*
%TO.P,U2,14,CLK_14*%
%TO.N,OUT*%
X124000000Y-92160000D03*
%TO.P,U2,13,CKEN_13*%
%TO.N,GND*%
X124000000Y-89620000D03*
%TO.P,U2,12,Cout_12*%
%TO.N,unconnected-(U2-Cout-Pad12)*%
X124000000Y-87080000D03*
%TO.P,U2,11,Q9_11*%
%TO.N,Net-(D1-A)*%
X124000000Y-84540000D03*
%TO.P,U2,10,Q4_10*%
%TO.N,Net-(D8-A)*%
X124000000Y-82000000D03*
%TO.P,U2,9,Q8_9*%
%TO.N,Net-(D5-A)*%
X124000000Y-79460000D03*
%TO.P,U2,8,VSS_8*%
%TO.N,GND*%
X131620000Y-79460000D03*
%TO.P,U2,7,Q3_7*%
%TO.N,Net-(D9-A)*%
X131620000Y-82000000D03*
%TO.P,U2,6,Q7_6*%
%TO.N,Net-(D6-A)*%
X131620000Y-84540000D03*
%TO.P,U2,5,Q6_5*%
%TO.N,Net-(D2-A)*%
X131620000Y-87080000D03*
%TO.P,U2,4,Q2_4*%
%TO.N,Net-(D10-A)*%
X131620000Y-89620000D03*
%TO.P,U2,3,Q0_3*%
%TO.N,Net-(D12-A)*%
X131620000Y-92160000D03*
%TO.P,U2,2,Q1_2*%
%TO.N,Net-(D11-A)*%
X131620000Y-94700000D03*
D18*
%TO.P,U2,1,Q5_1*%
%TO.N,Net-(D7-A)*%
X131620000Y-97240000D03*
%TD*%
D19*
%TO.P,RV1,1,1_1*%
%TO.N,TR*%
X155000000Y-92500000D03*
D20*
%TO.P,RV1,2,2_2*%
%TO.N,Net-(U1-DISCH)*%
X155000000Y-89960000D03*
%TO.P,RV1,3,3_3*%
X155000000Y-87420000D03*
%TD*%
D21*
%TO.P,C3,1*%
%TO.N,TR*%
X147529775Y-111000000D03*
D15*
%TO.P,C3,2*%
%TO.N,GND*%
X149529775Y-111000000D03*
%TD*%
D22*
%TO.P,J1,2,Pin_2_2*%
%TO.N,GND*%
X119000000Y-89500000D03*
D23*
%TO.P,J1,1,Pin_1_1*%
%TO.N,+5V*%
X119000000Y-92040000D03*
%TD*%
D15*
%TO.P,R1,2*%
%TO.N,Net-(U1-DISCH)*%
X148120000Y-92500000D03*
%TO.P,R1,1*%
%TO.N,+5V*%
X140500000Y-92500000D03*
%TD*%
D12*
%TO.P,D9,2,A_2*%
%TO.N,Net-(D9-A)*%
X138770000Y-73500000D03*
D13*
%TO.P,D9,1,K_1*%
%TO.N,Net-(D1-K)*%
X136230000Y-73500000D03*
%TD*%
D12*
%TO.P,D1,2,A_2*%
%TO.N,Net-(D1-A)*%
X103540000Y-97000000D03*
D13*
%TO.P,D1,1,K_1*%
%TO.N,Net-(D1-K)*%
X101000000Y-97000000D03*
%TD*%
D12*
%TO.P,D8,2,A_2*%
%TO.N,Net-(D8-A)*%
X94040000Y-75000000D03*
D13*
%TO.P,D8,1,K_1*%
%TO.N,Net-(D1-K)*%
X91500000Y-75000000D03*
%TD*%
D12*
%TO.P,D2,2,A_2*%
%TO.N,Net-(D2-A)*%
X109960000Y-54500000D03*
D13*
%TO.P,D2,1,K_1*%
%TO.N,Net-(D1-K)*%
X112500000Y-54500000D03*
%TD*%
%TO.P,D5,1,K_1*%
%TO.N,Net-(D1-K)*%
X119500000Y-118000000D03*
D12*
%TO.P,D5,2,A_2*%
%TO.N,Net-(D5-A)*%
X122040000Y-118000000D03*
%TD*%
%TO.P,D7,2,A_2*%
%TO.N,Net-(D7-A)*%
X177500000Y-91500000D03*
D13*
%TO.P,D7,1,K_1*%
%TO.N,Net-(D1-K)*%
X174960000Y-91500000D03*
%TD*%
D12*
%TO.P,D12,2,A_2*%
%TO.N,Net-(D12-A)*%
X183040000Y-72000000D03*
D13*
%TO.P,D12,1,K_1*%
%TO.N,Net-(D1-K)*%
X180500000Y-72000000D03*
%TD*%
D23*
%TO.P,J2,1,Pin_1_1*%
%TO.N,OUT*%
X142500000Y-78500000D03*
%TD*%
D24*
%TO.N,Net-(D1-K)*%
X169000000Y-93300000D03*
%TD*%
%TO.N,Net-(D1-K)*%
D25*
X156460000Y-105840000D02*
X169000000Y-93300000D01*
X156460000Y-113500000D02*
X156460000Y-105840000D01*
X135960000Y-132500000D02*
X135960000Y-130222943D01*
X135960000Y-130222943D02*
X122237057Y-116500000D01*
X122237057Y-116500000D02*
X121000000Y-116500000D01*
X121000000Y-116500000D02*
X119500000Y-118000000D01*
X156460000Y-113500000D02*
X154960000Y-113500000D01*
X154960000Y-113500000D02*
X135960000Y-132500000D01*
X180500000Y-72000000D02*
X180500000Y-69032943D01*
X180500000Y-69032943D02*
X164767057Y-53300000D01*
X164767057Y-53300000D02*
X162930000Y-53300000D01*
X162930000Y-53300000D02*
X161730000Y-54500000D01*
X174960000Y-91500000D02*
X174960000Y-77540000D01*
X174960000Y-77540000D02*
X180500000Y-72000000D01*
%TO.N,GND*%
X124000000Y-89620000D02*
X126500000Y-87120000D01*
X126500000Y-84580000D02*
X131620000Y-79460000D01*
X126500000Y-87120000D02*
X126500000Y-84580000D01*
X119000000Y-89500000D02*
X111500000Y-97000000D01*
X111500000Y-97000000D02*
X111500000Y-102690000D01*
%TO.N,Net-(D1-K)*%
X101000000Y-97000000D02*
X115607449Y-82392551D01*
X136984765Y-70241069D02*
X145988931Y-70241069D01*
X115607449Y-82392551D02*
X123052300Y-82392551D01*
X123052300Y-82392551D02*
X123607449Y-82947700D01*
X123607449Y-82947700D02*
X124392551Y-82947700D01*
X119643696Y-52900000D02*
X136984765Y-70241069D01*
X124392551Y-82947700D02*
X126603194Y-80737057D01*
X126603194Y-80737057D02*
X126603194Y-72840251D01*
X126603194Y-72840251D02*
X108760000Y-54997057D01*
X108760000Y-54002943D02*
X109862943Y-52900000D01*
X108760000Y-54997057D02*
X108760000Y-54002943D01*
X109862943Y-52900000D02*
X119643696Y-52900000D01*
X145988931Y-70241069D02*
X161730000Y-54500000D01*
X101000000Y-97000000D02*
X117900000Y-113900000D01*
X117900000Y-113900000D02*
X117900000Y-119365685D01*
X139700000Y-132002943D02*
X138997057Y-131300000D01*
X117900000Y-119365685D02*
X118134315Y-119600000D01*
X138597057Y-134100000D02*
X139700000Y-132997057D01*
X118134315Y-119600000D02*
X119968628Y-119600000D01*
X134468628Y-134100000D02*
X138597057Y-134100000D01*
X138997057Y-131300000D02*
X132800000Y-131300000D01*
X119968628Y-119600000D02*
X134468628Y-134100000D01*
X132800000Y-131300000D02*
X119500000Y-118000000D01*
X139700000Y-132997057D02*
X139700000Y-132002943D01*
%TO.N,GND*%
X147810000Y-96695000D02*
X149529775Y-98414775D01*
X149529775Y-98414775D02*
X149529775Y-111000000D01*
%TO.N,Net-(U1-DISCH)*%
X145270000Y-104315000D02*
X146710000Y-102875000D01*
X146710000Y-93910000D02*
X148120000Y-92500000D01*
X146710000Y-102875000D02*
X146710000Y-93910000D01*
%TO.N,TR*%
X142730000Y-104315000D02*
X142730000Y-103770000D01*
X142730000Y-103770000D02*
X145270000Y-101230000D01*
X145270000Y-101230000D02*
X145270000Y-96695000D01*
%TO.N,Net-(D2-A)*%
X109960000Y-54500000D02*
X111160000Y-53300000D01*
X111160000Y-53300000D02*
X118430000Y-53300000D01*
X118430000Y-53300000D02*
X137430000Y-72300000D01*
X132012551Y-80407700D02*
X131237986Y-80407700D01*
X137430000Y-72300000D02*
X137430000Y-74990251D01*
X137430000Y-74990251D02*
X132012551Y-80407700D01*
X131237986Y-80407700D02*
X130672300Y-80973386D01*
X130672300Y-80973386D02*
X130672300Y-86132300D01*
X130672300Y-86132300D02*
X131620000Y-87080000D01*
%TO.N,GND*%
X119000000Y-89500000D02*
X123880000Y-89500000D01*
X123880000Y-89500000D02*
X124000000Y-89620000D01*
%TO.N,+5V*%
X119000000Y-92040000D02*
X120712300Y-93752300D01*
X120712300Y-93752300D02*
X124392551Y-93752300D01*
X124947700Y-96292300D02*
X124000000Y-97240000D01*
X124392551Y-93752300D02*
X124947700Y-94307449D01*
X124947700Y-94307449D02*
X124947700Y-96292300D01*
%TO.N,GND*%
X111500000Y-102690000D02*
X116010000Y-102690000D01*
X116010000Y-102690000D02*
X124000000Y-94700000D01*
%TO.N,Net-(D1-A)*%
X103540000Y-97000000D02*
X117592300Y-82947700D01*
X117592300Y-82947700D02*
X122407700Y-82947700D01*
X122407700Y-82947700D02*
X124000000Y-84540000D01*
%TO.N,Net-(D1-K)*%
X111500000Y-110310000D02*
X111500000Y-112965685D01*
X111500000Y-112965685D02*
X118134315Y-119600000D01*
%TO.N,Net-(D10-A)*%
X138500000Y-132500000D02*
X137300000Y-133700000D01*
X137300000Y-133700000D02*
X134634314Y-133700000D01*
X118300000Y-119200000D02*
X118300000Y-115700000D01*
X134634314Y-133700000D02*
X120134314Y-119200000D01*
X120134314Y-119200000D02*
X118300000Y-119200000D01*
X130272300Y-103727700D02*
X130272300Y-90967700D01*
X118300000Y-115700000D02*
X130272300Y-103727700D01*
X130272300Y-90967700D02*
X131620000Y-89620000D01*
%TO.N,TR*%
X147529775Y-111000000D02*
X147529775Y-109114775D01*
X147529775Y-109114775D02*
X142730000Y-104315000D01*
%TO.N,Net-(D1-K)*%
X174960000Y-91500000D02*
X174160000Y-92300000D01*
%TO.N,OUT*%
X142500000Y-78500000D02*
X142500000Y-80714314D01*
X142500000Y-80714314D02*
X132002014Y-91212300D01*
X132002014Y-91212300D02*
X131227449Y-91212300D01*
X131227449Y-91212300D02*
X130672300Y-91767449D01*
X130672300Y-91767449D02*
X130672300Y-92552551D01*
X131227449Y-93107700D02*
X139142700Y-93107700D01*
X139142700Y-93107700D02*
X142730000Y-96695000D01*
X130672300Y-92552551D02*
X131227449Y-93107700D01*
%TO.N,Net-(D12-A)*%
X183040000Y-72000000D02*
X183040000Y-83985686D01*
X183040000Y-83985686D02*
X176160000Y-90865686D01*
X158045000Y-88545000D02*
X135235000Y-88545000D01*
X176160000Y-90865686D02*
X176160000Y-92700000D01*
X162200000Y-92700000D02*
X158045000Y-88545000D01*
X176160000Y-92700000D02*
X162200000Y-92700000D01*
X135235000Y-88545000D02*
X131620000Y-92160000D01*
%TO.N,Net-(D6-A)*%
X164270000Y-54500000D02*
X134230000Y-84540000D01*
X134230000Y-84540000D02*
X131620000Y-84540000D01*
%TO.N,Net-(D9-A)*%
X138770000Y-73500000D02*
X138770000Y-74850000D01*
X138770000Y-74850000D02*
X131620000Y-82000000D01*
%TO.N,Net-(D1-K)*%
X112500000Y-54500000D02*
X117230000Y-54500000D01*
X117230000Y-54500000D02*
X136230000Y-73500000D01*
X91500000Y-75000000D02*
X112000000Y-54500000D01*
X112000000Y-54500000D02*
X112500000Y-54500000D01*
%TO.N,Net-(D8-A)*%
X94040000Y-75000000D02*
X117000000Y-75000000D01*
X117000000Y-75000000D02*
X124000000Y-82000000D01*
%TD*%
M02*
